<?xml version="1.0" encoding="UTF-8" standalone="no" ?>
<!DOCTYPE svg PUBLIC "-//W3C//DTD SVG 1.1//EN" "http://www.w3.org/Graphics/SVG/1.1/DTD/svg11.dtd">
<svg xmlns="http://www.w3.org/2000/svg" xmlns:xlink="http://www.w3.org/1999/xlink" version="1.1" width="1280" height="1024" viewBox="0 0 1280 1024" xml:space="preserve">
<desc>Created with Fabric.js 4.4.0</desc>
<defs>
</defs>
<g transform="matrix(1 0 0 1 640 512)" id="background-logo"  >
<rect style="stroke: none; stroke-width: 0; stroke-dasharray: none; stroke-linecap: butt; stroke-dashoffset: 0; stroke-linejoin: miter; stroke-miterlimit: 4; fill: rgb(255,255,255); fill-rule: nonzero; opacity: 1;"  paint-order="stroke"  x="-640" y="-512" rx="0" ry="0" width="1280" height="1024" />
</g>
<g transform="matrix(1.9211538461538462 0 0 1.9211538461538462 269.04439470256483 422.41816343843084)" id="logo-logo"  >
<g style=""  paint-order="stroke"   >
		<g transform="matrix(0.9400236338480437 0 0 0.9400236338480435 -28.50187700785932 -9.492376307913617)"  >
<g style=""  paint-order="stroke"   >
		<g transform="matrix(1 0 0 1 0 -1.6798889370211327)"  >
<linearGradient id="SVGID_245_11_11_11_11_188" gradientUnits="userSpaceOnUse" gradientTransform="matrix(1 0 0 1 460.30000000000007 430.5)"  x1="0" y1="0" x2="0" y2="165">
<stop offset="0%" style="stop-color:rgb(250,217,97);stop-opacity: 1"/>
<stop offset="100%" style="stop-color:rgb(247,107,28);stop-opacity: 1"/>
</linearGradient>
<path style="stroke: none; stroke-width: 1; stroke-dasharray: none; stroke-linecap: butt; stroke-dashoffset: 0; stroke-linejoin: miter; stroke-miterlimit: 4; fill: url(#SVGID_245_11_11_11_11_188); fill-rule: nonzero; opacity: 1;"  paint-order="stroke"  transform=" translate(-510.20000000000005, -513.2164429581304)" d="M 560.1 546.9 C 560.1 546.9 543.8000000000001 601.3 494.3 595.5 C 451.2 590.5 462.5 537.5 462.5 537.5 C 462.5 537.5 466.2 574.4 494.5 579.7 C 494.5 579.7 465.4 556.7 477.3 526.1 C 492.8 486.6 480.7 476.8 460.3 472.70000000000005 C 460.3 472.70000000000005 476.1 457.90000000000003 502.7 472.70000000000005 C 524 484.6 516.2 508.00000000000006 516.2 508.00000000000006 C 516.2 508.00000000000006 566.2 472.70000000000005 510.20000000000005 430.50000000000006 C 510.20000000000005 430.50000000000006 556 440.30000000000007 556 478.1000000000001 C 556 515.9000000000001 541.2 524.8000000000001 533 535.9000000000001 C 524.9 546.9 520.3 569.5 560.1 546.9 z" stroke-linecap="round" />
</g>
		<g transform="matrix(1 0 0 1 -32.80000000000007 11.252020539012506)"  >
<linearGradient id="SVGID_175" gradientUnits="userSpaceOnUse" gradientTransform="matrix(1 0 0 1 0 0)"  x1="460.3537" y1="526.1407" x2="494.3537" y2="526.1407">
<stop offset="0%" style="stop-color:rgb(252,196,150);stop-opacity: 1"/>
<stop offset="100%" style="stop-color:rgb(242,105,102);stop-opacity: 1"/>
</linearGradient>
<path style="stroke: none; stroke-width: 1; stroke-dasharray: none; stroke-linecap: butt; stroke-dashoffset: 0; stroke-linejoin: miter; stroke-miterlimit: 4; fill: url(#SVGID_175); fill-rule: nonzero; opacity: 1;"  paint-order="stroke"  transform=" translate(-477.4, -526.148352434164)" d="M 460.4 472.7 C 460.4 472.7 508.7 471.5 488.7 514.9 C 469.7 556.3 492.3 577.6999999999999 494.4 579.6 C 492 577.6 462.2 551.8000000000001 472 521.9 C 482.2 490.7 480.7 476.8 460.4 472.7 z" stroke-linecap="round" />
</g>
		<g transform="matrix(1 0 0 1 16.511576325247233 -45.344051605843845)"  >
<linearGradient id="SVGID_176" gradientUnits="userSpaceOnUse" gradientTransform="matrix(1 0 0 1 0 0)"  x1="510.2341" y1="469.5143" x2="543.2598" y2="469.5143">
<stop offset="0%" style="stop-color:rgb(252,196,150);stop-opacity: 1"/>
<stop offset="100%" style="stop-color:rgb(242,105,102);stop-opacity: 1"/>
</linearGradient>
<path style="stroke: none; stroke-width: 1; stroke-dasharray: none; stroke-linecap: butt; stroke-dashoffset: 0; stroke-linejoin: miter; stroke-miterlimit: 4; fill: url(#SVGID_176); fill-rule: nonzero; opacity: 1;"  paint-order="stroke"  transform=" translate(-526.7115763252473, -469.5522802893077)" d="M 510.2 430.5 C 510.2 430.5 510.3 430.5 510.2 430.5 C 543.2 444 549.7 476.7 537.5 494.8 C 525.3 512.9 516.2 508 516.2 508 C 516.2 508 516.2 508 516.2 508 C 516.8 507.3 546.1 471.1 510.2 430.5 z" stroke-linecap="round" />
</g>
		<g transform="matrix(1 0 0 1 0.016250080707663983 53.5)"  >
<linearGradient id="SVGID_177" gradientUnits="userSpaceOnUse" gradientTransform="matrix(1 0 0 1 0 0)"  x1="466.9192" y1="518.8363" x2="543.0333" y2="594.9504">
<stop offset="0%" style="stop-color:rgb(252,196,150);stop-opacity: 1"/>
<stop offset="100%" style="stop-color:rgb(242,105,102);stop-opacity: 1"/>
</linearGradient>
<path style="stroke: none; stroke-width: 1; stroke-dasharray: none; stroke-linecap: butt; stroke-dashoffset: 0; stroke-linejoin: miter; stroke-miterlimit: 4; fill: url(#SVGID_177); fill-rule: nonzero; opacity: 1;"  paint-order="stroke"  transform=" translate(-510.2162500807077, -568.3963318951515)" d="M 560.1 547 C 559.7 548.7 544.9 608 491.20000000000005 598.2 C 448.6 590.4000000000001 462.50000000000006 537.5 462.50000000000006 537.5 C 462.50000000000006 537.5 460.1000000000001 602.4 513.5 587.4 C 549.4 577.3 559.7 548.1 560.1 547 z" stroke-linecap="round" />
</g>
</g>
</g>
		<g transform="matrix(0.9400236338480437 0 0 0.9400236338480435 9.024226884941243 3.854096898776959)"  >
<g style=""  paint-order="stroke"   >
		<g transform="matrix(1 0 0 1 44.32961657390979 -22.99435067480283)"  >
<linearGradient id="SVGID_190" gradientUnits="userSpaceOnUse" gradientTransform="matrix(1 0 0 1 569.7 493.20000000000005)"  x1="0" y1="0" x2="0" y2="26">
<stop offset="0%" style="stop-color:rgb(91,36,122);stop-opacity: 1"/>
<stop offset="100%" style="stop-color:rgb(27,206,223);stop-opacity: 1"/>
</linearGradient>
<path style="stroke: none; stroke-width: 1; stroke-dasharray: none; stroke-linecap: butt; stroke-dashoffset: 0; stroke-linejoin: miter; stroke-miterlimit: 4; fill: url(#SVGID_190); fill-rule: nonzero; opacity: 1;"  paint-order="stroke"  transform=" translate(-594.45, -506.1)" d="M 619.2 493.2 C 615 502.5 602.9000000000001 510 597.4000000000001 514.8 L 569.7 519 C 579 510.8 583.9000000000001 503.8 591.4000000000001 500 L 619.2 493.2 z" stroke-linecap="round" />
</g>
		<g transform="matrix(1 0 0 1 14.094754260358968 -42.44435067480282)"  >
<linearGradient id="SVGID_179" gradientUnits="userSpaceOnUse" gradientTransform="matrix(1 0 0 1 0 0)"  x1="565.5536" y1="527.5632" x2="559.1064" y2="437.8617">
<stop offset="0%" style="stop-color:rgb(169,216,183);stop-opacity: 1"/>
<stop offset="100%" style="stop-color:rgb(0,166,229);stop-opacity: 1"/>
</linearGradient>
<path style="stroke: none; stroke-width: 1; stroke-dasharray: none; stroke-linecap: butt; stroke-dashoffset: 0; stroke-linejoin: miter; stroke-miterlimit: 4; fill: url(#SVGID_179); fill-rule: nonzero; opacity: 1;"  paint-order="stroke"  transform=" translate(-564.2151376864492, -486.65000000000003)" d="M 571.9 517.2 C 568.9 520 567.6999999999999 522.3000000000001 565.1999999999999 524.3000000000001 C 555.8 531.9000000000001 548.9999999999999 534.1 548.1999999999999 534.6 C 549.9999999999999 532.6 589.9999999999999 487.90000000000003 556.4 438.70000000000005 C 556.4 438.70000000000005 556.4 438.70000000000005 556.4 438.70000000000005 C 557.1 439.30000000000007 581.1999999999999 460.20000000000005 580.1999999999999 490.1 C 580.1 498.4 577 507.7 571.9 517.2 z" stroke-linecap="round" />
</g>
		<g transform="matrix(1 0 0 1 -6.320383426090302 31.044736571490716)"  >
<linearGradient id="SVGID_180" gradientUnits="userSpaceOnUse" gradientTransform="matrix(1 0 0 1 0 0)"  x1="509.5717" y1="626.4077" x2="589.1818" y2="509.2351">
<stop offset="0%" style="stop-color:rgb(169,216,183);stop-opacity: 1"/>
<stop offset="100%" style="stop-color:rgb(0,166,229);stop-opacity: 1"/>
</linearGradient>
<path style="stroke: none; stroke-width: 1; stroke-dasharray: none; stroke-linecap: butt; stroke-dashoffset: 0; stroke-linejoin: miter; stroke-miterlimit: 4; fill: url(#SVGID_180); fill-rule: nonzero; opacity: 1;"  paint-order="stroke"  transform=" translate(-543.8, -560.1390872462936)" d="M 607.6 505.3 C 607.6 506.8 598.7 650.2 480 606.8 C 485.1 608.0999999999999 525.4 617.4 551.1 585.3 C 578.4 551.3 578.5 527.8 578.5 527.5 C 578.6 527.5 594.7 516.4 607.6 505.3 z" stroke-linecap="round" />
</g>
		<g transform="matrix(1 0 0 1 0 27.299947015656926)"  >
<linearGradient id="SVGID_181" gradientUnits="userSpaceOnUse" gradientTransform="matrix(1 0 0 1 0 0)"  x1="585.3432" y1="488.1367" x2="528.7192" y2="626.6133">
<stop offset="0%" style="stop-color:rgb(169,216,183);stop-opacity: 1"/>
<stop offset="100%" style="stop-color:rgb(0,166,229);stop-opacity: 1"/>
</linearGradient>
<path style="stroke: none; stroke-width: 1; stroke-dasharray: none; stroke-linecap: butt; stroke-dashoffset: 0; stroke-linejoin: miter; stroke-miterlimit: 4; fill: url(#SVGID_181); fill-rule: nonzero; opacity: 1;"  paint-order="stroke"  transform=" translate(-550.1203834260903, -556.3942976904598)" d="M 583.7 601.9 C 537.9000000000001 638.1 480.6 607.3 479.50000000000006 606.6999999999999 C 479.6000000000001 606.6999999999999 479.6000000000001 606.6999999999999 479.70000000000005 606.8 C 479.70000000000005 606.8 479.80000000000007 606.8 479.80000000000007 606.8 C 479.9000000000001 606.8 479.9000000000001 606.8 480.00000000000006 606.8 C 600.1 642.8 601.9000000000001 511.79999999999995 602 510.4 C 602 510.4 602 510.4 602 510.4 C 607.5 505.59999999999997 613.5 499.9 619.3 493.29999999999995 C 619.2 493.2 631.9 563.9 583.7 601.9 z" stroke-linecap="round" />
</g>
		<g transform="matrix(1 0 0 1 24.929616573909698 -6.594350674802854)"  >
<linearGradient id="SVGID_182" gradientUnits="userSpaceOnUse" gradientTransform="matrix(1 0 0 1 0 0)"  x1="603.3677" y1="512.6135" x2="563.2823" y2="526.6294">
<stop offset="0%" style="stop-color:rgb(169,216,183);stop-opacity: 1"/>
<stop offset="100%" style="stop-color:rgb(0,166,229);stop-opacity: 1"/>
</linearGradient>
<path style="stroke: none; stroke-width: 1; stroke-dasharray: none; stroke-linecap: butt; stroke-dashoffset: 0; stroke-linejoin: miter; stroke-miterlimit: 4; fill: url(#SVGID_182); fill-rule: nonzero; opacity: 1;"  paint-order="stroke"  transform=" translate(-575.05, -522.5)" d="M 601.9 510.4 C 601.9 510.4 601.9 510.4 601.9 510.4 C 589 521.6 578.5 527.5 578.5 527.5 C 578.5 527.5 564.2 533.2 548.2 534.6 C 548.2 534.6 548.2 534.6 548.3000000000001 534.5 C 549.3000000000001 533.8 560.4000000000001 526.3 571.9000000000001 517.3 L 601.9 510.4 z" stroke-linecap="round" />
</g>
		<g transform="matrix(1 0 0 1 23.82961657390979 -51.0443506748029)"  >
<linearGradient id="SVGID_183" gradientUnits="userSpaceOnUse" gradientTransform="matrix(1 0 0 1 0 0)"  x1="560.28" y1="441.8306" x2="582.7053" y2="505.4626">
<stop offset="0%" style="stop-color:rgb(169,216,183);stop-opacity: 1"/>
<stop offset="100%" style="stop-color:rgb(0,166,229);stop-opacity: 1"/>
</linearGradient>
<path style="stroke: none; stroke-width: 1; stroke-dasharray: none; stroke-linecap: butt; stroke-dashoffset: 0; stroke-linejoin: miter; stroke-miterlimit: 4; fill: url(#SVGID_183); fill-rule: nonzero; opacity: 1;"  paint-order="stroke"  transform=" translate(-573.95, -478.04999999999995)" d="M 591.4 500.1 C 586.3 505.6 579 511.8 571.9 517.4 C 595.1999999999999 473.9 557.5 439.5 556.5 438.7 C 557.6 439.1 590.3 455.1 591.4 500.1 z" stroke-linecap="round" />
</g>
</g>
</g>
</g>
</g>
<g transform="matrix(1.9211538461538462 0 0 1.9211538461538462 800.5110865472798 418.48059263103903)" id="text-logo-path-group"  >
<g style=""  paint-order="stroke"   >
		<g transform="matrix(1 0 0 1 0 0)" id="text-logo-path-0"  >
<linearGradient id="SVGID_191" gradientUnits="userSpaceOnUse" gradientTransform="matrix(1 0 0 1 3.4199999999999875 -40.47)"  x1="0" y1="0" x2="0" y2="64">
<stop offset="0%" style="stop-color:rgb(91,36,122);stop-opacity: 1"/>
<stop offset="100%" style="stop-color:rgb(27,206,223);stop-opacity: 1"/>
</linearGradient>
<path style="stroke: none; stroke-width: 0; stroke-dasharray: none; stroke-linecap: butt; stroke-dashoffset: 0; stroke-linejoin: miter; stroke-miterlimit: 4; fill: url(#SVGID_191); fill-rule: nonzero; opacity: 1;"  paint-order="stroke"  transform=" translate(-189.42499999999998, 19.955)" d="M 13.69 0 L 3.42 0 L 3.42 -39.91 L 27.36 -39.91 Q 33.34 -39.91 36.06 -37.2 Q 38.77 -34.48 38.77 -28.5 L 38.77 -28.5 L 38.77 -22.79 Q 38.77 -16.81 36.06 -14.11 Q 33.34 -11.41 27.36 -11.41 L 27.36 -11.41 L 13.69 -11.41 L 13.69 0 Z M 13.69 -31.92 L 13.69 -19.37 L 25.08 -19.37 Q 28.5 -19.37 28.5 -22.79 L 28.5 -22.79 L 28.5 -28.5 Q 28.5 -31.92 25.08 -31.92 L 25.08 -31.92 L 13.69 -31.92 Z M 54.56 0 L 44.29 0 L 44.29 -39.91 L 68.23 -39.91 Q 74.21 -39.91 76.92 -37.2 Q 79.64 -34.48 79.64 -28.5 L 79.64 -28.5 L 79.64 -23.38 Q 79.64 -18.65 78.06 -16.02 Q 76.49 -13.39 73.07 -12.55 L 73.07 -12.55 L 80.19 0 L 69.09 0 L 62.52 -11.97 L 54.56 -11.97 L 54.56 0 Z M 54.56 -31.92 L 54.56 -19.96 L 65.94 -19.96 Q 69.37 -19.96 69.37 -23.38 L 69.37 -23.38 L 69.37 -28.5 Q 69.37 -31.92 65.94 -31.92 L 65.94 -31.92 L 54.56 -31.92 Z M 84.57 -10.83 L 84.57 -10.83 L 84.57 -29.06 Q 84.57 -35.04 87.27 -37.75 Q 89.97 -40.47 95.98 -40.47 L 95.98 -40.47 L 110.23 -40.47 Q 116.22 -40.47 118.92 -37.77 Q 121.62 -35.07 121.62 -29.06 L 121.62 -29.06 L 121.62 -10.83 Q 121.62 -4.84 118.92 -2.14 Q 116.22 0.56 110.23 0.56 L 110.23 0.56 L 95.98 0.56 Q 90 0.56 87.29 -2.14 Q 84.57 -4.84 84.57 -10.83 Z M 94.84 -29.06 L 94.84 -10.83 Q 94.84 -7.4 98.24 -7.4 L 98.24 -7.4 L 107.95 -7.4 Q 111.37 -7.4 111.35 -10.83 L 111.35 -10.83 L 111.35 -29.06 Q 111.35 -32.48 107.95 -32.48 L 107.95 -32.48 L 98.24 -32.48 Q 94.81 -32.48 94.84 -29.06 L 94.84 -29.06 Z M 152.33 0 L 141.23 0 L 156.31 -39.91 L 167.73 -39.91 L 182.84 0 L 171.71 0 L 169.14 -7.13 L 154.89 -7.13 L 152.33 0 Z M 162.02 -27.94 L 157.46 -14.53 L 166.58 -14.53 L 162.02 -27.94 Z M 183.79 -10.27 L 183.79 -10.27 L 183.79 -28.5 Q 183.79 -34.48 186.49 -37.2 Q 189.19 -39.91 195.2 -39.91 L 195.2 -39.91 L 215.72 -39.91 L 215.72 -31.92 L 197.46 -31.92 Q 194.04 -31.92 194.06 -28.5 L 194.06 -28.5 L 194.06 -10.27 Q 194.06 -8.96 194.83 -8.18 Q 195.59 -7.4 196.9 -7.4 L 196.9 -7.4 Q 203.47 -7.4 208.87 -7.68 L 208.87 -7.68 L 208.87 -15.95 L 201.47 -15.95 L 201.47 -22.79 L 219.14 -22.79 L 219.14 -0.86 Q 205.81 0.56 194.62 0.56 L 194.62 0.56 Q 189.03 0.56 186.41 -2.06 Q 183.79 -4.68 183.79 -10.27 Z M 256.86 0 L 225.22 0 L 225.22 -39.91 L 256.86 -39.91 L 256.86 -31.92 L 235.49 -31.92 L 235.49 -24.21 L 252.3 -24.21 L 252.3 -16.25 L 235.49 -16.25 L 235.49 -7.99 L 256.86 -7.99 L 256.86 0 Z M 272.07 0 L 261.8 0 L 261.8 -39.91 L 272.62 -39.91 L 286.32 -15.95 L 286.32 -39.91 L 296.56 -39.91 L 296.56 0 L 285.73 0 L 272.07 -23.94 L 272.07 0 Z M 302.66 -10.27 L 302.66 -10.27 L 302.66 -28.5 Q 302.66 -34.48 305.36 -37.2 Q 308.06 -39.91 314.08 -39.91 L 314.08 -39.91 L 334.59 -39.91 L 334.59 -31.92 L 316.33 -31.92 Q 312.91 -31.92 312.93 -28.5 L 312.93 -28.5 L 312.93 -10.27 Q 312.93 -8.96 313.7 -8.18 Q 314.47 -7.4 315.66 -7.4 Q 316.86 -7.4 318.28 -7.43 Q 319.7 -7.46 321.24 -7.51 Q 322.79 -7.57 324.36 -7.63 Q 325.93 -7.68 328.41 -7.86 Q 330.89 -8.04 334.59 -8.27 L 334.59 -8.27 L 334.59 -0.56 Q 322.17 0.56 313.88 0.56 L 313.88 0.56 Q 313.69 0.56 313.49 0.56 L 313.49 0.56 Q 307.9 0.56 305.28 -2.06 Q 302.66 -4.68 302.66 -10.27 Z M 350.07 -10.55 L 334.96 -39.91 L 345.79 -39.91 L 355.19 -20.51 L 364.6 -39.91 L 375.43 -39.91 L 360.31 -10.55 L 360.31 0 L 350.07 0 L 350.07 -10.55 Z" stroke-linecap="round" />
</g>
</g>
</g>
<g transform="matrix(1.9211538461538462 0 0 1.9211538461538462 745.9989891406859 524.031358857933)" id="tagline-826ce1ad-e003-44aa-a3ee-4e5610e14574-logo-path-group"  >
<g style=""  paint-order="stroke"   >
		<g transform="matrix(1 0 0 1 0 0)" id="tagline-826ce1ad-e003-44aa-a3ee-4e5610e14574-logo-path-0"  >
<linearGradient id="SVGID_192" gradientUnits="userSpaceOnUse" gradientTransform="matrix(1 0 0 1 -6.759999999999991 -21.7)"  x1="0" y1="0" x2="0" y2="35">
<stop offset="0%" style="stop-color:rgb(250,217,97);stop-opacity: 1"/>
<stop offset="100%" style="stop-color:rgb(247,107,28);stop-opacity: 1"/>
</linearGradient>
<path style="stroke: none; stroke-width: 0; stroke-dasharray: none; stroke-linecap: butt; stroke-dashoffset: 0; stroke-linejoin: miter; stroke-miterlimit: 4; fill: url(#SVGID_192); fill-rule: nonzero; opacity: 1;"  paint-order="stroke"  transform=" translate(-150.69574036112846, 10.695)" d="M 12.96 0.31 C 18.69 0.31 22.01 -2.79 22.97 -8.25 L 25.36 -21.7 L 20.09 -21.7 L 17.64 -7.91 C 17.24 -5.7 15.9 -4.65 13.83 -4.65 C 11.63 -4.65 10.76 -5.83 11.13 -7.91 L 13.58 -21.7 L 8.31 -21.7 L 5.92 -8.25 C 4.9 -2.48 7.5 0.31 12.96 0.31 Z M -6.76 -7.5 L 4.87 -6.67 L 5.18 -8.34 Z M -6.45 -4.18 L 4.96 -3.32 C 4.8 -3.84 4.74 -4.37 4.71 -4.96 Z M -6.17 -10.85 L 5.46 -10.01 L 5.77 -11.69 Z M -5.92 -0.84 L 7.1 0 C 6.67 -0.34 6.04 -0.74 5.77 -1.64 Z M -5.58 -14.2 L 6.04 -13.33 L 6.35 -15.04 Z M -4.99 -17.52 L 6.63 -16.68 L 6.94 -18.35 Z M -4.4 -20.86 L 7.22 -20.03 L 7.53 -21.7 Z M 54.62 0 L 60.51 0 L 64.36 -21.7 L 59.09 -21.7 L 56.85 -9.05 L 52.58 -21.7 L 46.69 -21.7 L 42.84 0 L 48.11 0 L 50.34 -12.65 Z M 30.44 -0.84 L 42.07 0 L 42.38 -1.67 Z M 31.03 -4.18 L 42.66 -3.32 L 42.97 -5.02 Z M 31.62 -7.5 L 43.24 -6.67 L 43.52 -8.34 Z M 32.21 -10.85 L 43.83 -10.01 L 44.11 -11.69 Z M 32.8 -14.2 L 44.42 -13.33 L 44.73 -15.04 Z M 33.39 -17.52 L 45.01 -16.68 L 45.29 -18.35 Z M 33.98 -20.86 L 45.6 -20.03 L 45.88 -21.7 Z M 81.87 0 L 96.66 0 L 97.49 -4.65 L 87.98 -4.65 L 90.98 -21.7 L 85.71 -21.7 Z M 69.47 -0.84 L 81.1 0 L 81.41 -1.67 Z M 70.06 -4.18 L 81.68 -3.32 L 81.99 -5.02 Z M 70.65 -7.5 L 82.27 -6.67 L 82.55 -8.34 Z M 71.24 -10.85 L 82.86 -10.01 L 83.14 -11.69 Z M 71.83 -14.2 L 83.45 -13.33 L 83.76 -15.04 Z M 72.42 -17.52 L 84.04 -16.68 L 84.32 -18.35 Z M 73 -20.86 L 84.63 -20.03 L 84.91 -21.7 Z M 118.02 0 L 123.29 0 L 127.13 -21.7 L 121.86 -21.7 Z M 105.62 -0.84 L 117.24 0 L 117.55 -1.67 Z M 106.21 -4.18 L 117.83 -3.32 L 118.14 -5.02 Z M 106.79 -7.5 L 118.42 -6.67 L 118.7 -8.34 Z M 107.38 -10.85 L 119.01 -10.01 L 119.29 -11.69 Z M 107.97 -14.2 L 119.6 -13.33 L 119.91 -15.04 Z M 108.56 -17.52 L 120.19 -16.68 L 120.47 -18.35 Z M 109.15 -20.86 L 120.78 -20.03 L 121.05 -21.7 Z M 153.95 0 L 159.22 0 L 165.04 -10.07 L 163.25 0 L 168.52 0 L 172.36 -21.7 L 166.47 -21.7 L 157.63 -6.01 L 154.38 -21.7 L 148.49 -21.7 L 144.65 0 L 149.92 0 L 151.71 -10.07 Z M 132.25 -0.84 L 143.87 0 L 144.18 -1.67 Z M 132.83 -4.18 L 144.46 -3.32 L 144.77 -5.02 Z M 133.42 -7.5 L 145.05 -6.67 L 145.33 -8.34 Z M 134.01 -10.85 L 145.64 -10.01 L 145.92 -11.69 Z M 134.6 -14.2 L 146.23 -13.33 L 146.54 -15.04 Z M 135.19 -17.52 L 146.82 -16.68 L 147.09 -18.35 Z M 135.78 -20.86 L 147.41 -20.03 L 147.68 -21.7 Z M 189.88 0 L 195.15 0 L 198.99 -21.7 L 193.72 -21.7 Z M 177.47 -0.84 L 189.1 0 L 189.41 -1.67 Z M 178.06 -4.18 L 189.69 -3.32 L 190 -5.02 Z M 178.65 -7.5 L 190.28 -6.67 L 190.56 -8.34 Z M 179.24 -10.85 L 190.87 -10.01 L 191.15 -11.69 Z M 179.83 -14.2 L 191.46 -13.33 L 191.77 -15.04 Z M 180.42 -17.52 L 192.05 -16.68 L 192.32 -18.35 Z M 181.01 -20.86 L 192.63 -20.03 L 192.91 -21.7 Z M 221.68 0 L 226.95 0 L 229.96 -17.05 L 235.14 -17.05 L 235.97 -21.7 L 220.35 -21.7 L 219.51 -17.05 L 224.69 -17.05 Z M 207.05 -17.52 L 218.67 -16.68 L 218.98 -18.35 Z M 207.64 -20.86 L 219.26 -20.03 L 219.57 -21.7 Z M 209.28 -0.84 L 220.91 0 L 221.22 -1.67 Z M 209.87 -4.18 L 221.5 -3.32 L 221.81 -5.02 Z M 210.46 -7.5 L 222.08 -6.67 L 222.39 -8.34 Z M 211.05 -10.85 L 222.67 -10.01 L 222.98 -11.69 Z M 211.64 -14.2 L 223.26 -13.33 L 223.57 -15.04 Z M 253.49 0 L 267.34 0 L 268.18 -4.65 L 259.59 -4.65 L 260.28 -8.53 L 267.62 -8.53 L 268.43 -13.18 L 261.08 -13.18 L 261.76 -17.05 L 270.35 -17.05 L 271.19 -21.7 L 257.33 -21.7 Z M 241.09 -0.84 L 252.71 0 L 253.02 -1.67 Z M 241.68 -4.18 L 253.3 -3.32 L 253.61 -5.02 Z M 242.27 -7.5 L 253.89 -6.67 L 254.17 -8.34 Z M 242.85 -10.85 L 254.48 -10.01 L 254.76 -11.69 Z M 243.44 -14.2 L 255.07 -13.33 L 255.38 -15.04 Z M 244.03 -17.52 L 255.66 -16.68 L 255.94 -18.35 Z M 244.62 -20.86 L 256.25 -20.03 L 256.53 -21.7 Z M 288.7 0 L 295.15 0 C 301.66 0 306.71 -3.94 307.92 -10.85 C 309.07 -17.36 305.91 -21.7 299 -21.7 L 292.55 -21.7 Z M 276.3 -0.84 L 287.93 0 L 288.24 -1.67 Z M 276.89 -4.18 L 288.52 -3.32 L 288.83 -5.02 Z M 277.48 -7.5 L 289.11 -6.67 L 289.39 -8.34 Z M 278.07 -10.85 L 289.7 -10.01 L 289.97 -11.69 Z M 278.66 -14.2 L 290.28 -13.33 L 290.59 -15.04 Z M 279.25 -17.52 L 290.87 -16.68 L 291.15 -18.35 Z M 279.84 -20.86 L 291.46 -20.03 L 291.74 -21.7 Z M 294.81 -4.65 L 296.98 -17.05 L 297.54 -17.05 C 301.26 -17.05 303.34 -14.79 302.65 -10.85 C 302 -7.13 299.31 -4.65 295.37 -4.65 Z" stroke-linecap="round" />
</g>
</g>
</g>
</svg>