<svg width="845" height="472" viewBox="0 0 845 472" fill="none" xmlns="http://www.w3.org/2000/svg">
<g clip-path="url(#clip0)">
<path opacity="0.5" d="M642.094 251.983L574.719 213.156C573.627 212.533 573.783 211.285 575.03 210.505L641.782 171.991C643.186 171.211 645.057 171.211 646.305 171.835L713.68 210.661C714.772 211.285 714.616 212.533 713.368 213.312L646.617 251.827C645.213 252.607 643.186 252.607 642.094 251.983Z" fill="#242993"/>
<path d="M643.965 269.447C642.874 269.447 641.626 269.135 640.846 268.667L546.489 214.092C545.554 213.624 545.086 212.688 545.086 211.909C545.086 210.973 545.71 209.882 546.957 209.258L640.534 155.306C642.562 154.059 645.681 154.059 647.553 154.994L741.909 209.57C742.845 210.038 743.313 210.973 743.313 211.753C743.313 212.688 742.689 213.78 741.441 214.404L647.865 268.355C646.773 269.135 645.369 269.447 643.965 269.447ZM644.277 155.774C643.186 155.774 641.938 156.086 641.002 156.554L547.425 210.505C546.645 210.973 546.178 211.441 546.178 211.909C546.178 212.377 546.645 212.688 546.957 212.844L641.314 267.42C642.718 268.2 645.213 268.044 646.929 267.108L740.506 213.156C741.286 212.688 741.753 212.221 741.753 211.753C741.753 211.285 741.286 210.973 740.974 210.817L646.617 156.242C646.149 155.93 645.213 155.774 644.277 155.774Z" fill="#42FFFF"/>
<path d="M714.304 186.18V173.082H693.094L646.149 145.95C645.057 145.327 643.03 145.327 641.626 146.106L594.838 173.082H573.783V186.18C573.783 186.648 574.095 186.96 574.563 187.272L641.938 226.098C643.03 226.722 645.057 226.722 646.461 225.942L713.213 187.428C713.992 187.116 714.304 186.648 714.304 186.18Z" fill="url(#paint0_linear)"/>
<path d="M642.095 213.156L574.719 174.33C573.627 173.706 573.783 172.459 575.031 171.679L641.783 133.164C643.186 132.385 645.058 132.385 646.306 133.008L713.681 171.835C714.773 172.459 714.617 173.706 713.369 174.486L646.617 213C645.214 213.78 643.186 213.936 642.095 213.156Z" fill="url(#paint1_linear)"/>
<path d="M642.095 213.156L574.719 174.33C573.627 173.706 573.783 172.459 575.031 171.679L641.783 133.164C643.186 132.385 645.058 132.385 646.306 133.008L713.681 171.835C714.773 172.459 714.617 173.706 713.369 174.486L646.617 213C645.214 213.78 643.186 213.936 642.095 213.156Z" fill="url(#paint2_linear)"/>
<path d="M642.25 208.635L582.517 174.175C581.425 173.551 581.581 172.615 582.829 171.836L641.938 137.687C643.186 137.063 644.901 136.907 645.993 137.531L705.726 171.992C706.818 172.615 706.662 173.551 705.414 174.331L646.305 208.479C645.057 209.103 643.342 209.259 642.25 208.635Z" fill="#242993"/>
<path d="M642.406 205.828L587.507 174.174C586.572 173.706 586.728 172.614 587.819 171.991L642.094 140.649C643.186 140.025 644.745 140.025 645.681 140.493L700.58 172.147C701.515 172.614 701.359 173.706 700.268 174.33L645.993 205.672C645.057 206.295 643.342 206.295 642.406 205.828Z" fill="#4553C7"/>
<path d="M642.874 171.055L636.479 167.313L639.911 165.286L646.461 169.028L642.874 171.055Z" fill="#42FFFF"/>
<path d="M654.883 170.588L648.333 174.174L644.901 172.147L651.296 168.561L654.883 170.588Z" fill="#42FFFF"/>
<path d="M641.47 171.836L637.883 173.864L634.452 171.836L637.883 169.809L641.47 171.836Z" fill="#42FFFF"/>
<path d="M653.479 178.852L650.048 180.879L639.911 175.109L643.498 173.082L653.479 178.852Z" fill="#42FFFF"/>
<path opacity="0.4" d="M714.304 155.618L685.607 155.774L646.149 133.008C645.057 132.385 643.03 132.385 641.626 133.164L601.544 156.242L573.783 156.398V173.238C573.783 173.55 574.095 173.862 574.563 174.174L641.938 213C643.03 213.624 645.057 213.624 646.461 212.844L713.213 174.33C713.836 174.018 714.148 173.55 714.304 173.082V155.618Z" fill="#42FFFF"/>
<path d="M714.304 157.333V144.391H693.094L646.149 117.259C645.057 116.636 643.03 116.636 641.626 117.415L594.838 144.391H573.783V157.489C573.783 157.957 574.095 158.269 574.563 158.581L641.938 197.407C643.03 198.031 645.057 198.031 646.461 197.251L713.213 158.737C713.992 158.269 714.304 157.801 714.304 157.333Z" fill="url(#paint3_linear)"/>
<path d="M642.095 184.465L574.719 145.639C573.627 145.015 573.783 143.767 575.031 142.988L641.783 104.473C643.186 103.693 645.058 103.693 646.306 104.317L713.681 143.144C714.773 143.767 714.617 145.015 713.369 145.795L646.617 184.309C645.214 184.933 643.186 185.089 642.095 184.465Z" fill="url(#paint4_linear)"/>
<path d="M642.25 179.788L582.517 145.328C581.425 144.704 581.581 143.768 582.829 142.989L641.938 108.84C643.186 108.216 644.901 108.06 645.993 108.684L705.726 143.145C706.818 143.768 706.662 144.704 705.414 145.484L646.305 179.632C645.057 180.412 643.342 180.412 642.25 179.788Z" fill="#242993"/>
<path d="M642.406 176.98L587.507 145.327C586.572 144.859 586.728 143.767 587.819 143.144L642.094 111.802C643.186 111.178 644.745 111.178 645.681 111.646L700.58 143.3C701.515 143.767 701.359 144.859 700.268 145.483L645.993 176.825C645.057 177.448 643.342 177.448 642.406 176.98Z" fill="#4553C7"/>
<path d="M642.874 142.208L636.479 138.622L639.911 136.595L646.461 140.181L642.874 142.208Z" fill="#42FFFF"/>
<path d="M654.883 141.741L648.333 145.483L644.901 143.456L651.296 139.714L654.883 141.741Z" fill="#42FFFF"/>
<path d="M641.47 143.145L637.883 145.173L634.452 143.145L637.883 141.118L641.47 143.145Z" fill="#42FFFF"/>
<path d="M653.479 150.161L650.048 152.188L639.911 146.262L643.498 144.235L653.479 150.161Z" fill="#42FFFF"/>
<path opacity="0.5" d="M172.182 256.661L104.806 217.834C103.714 217.21 103.87 215.963 105.118 215.183L171.87 176.669C173.273 175.889 175.145 175.889 176.393 176.513L243.768 215.339C244.86 215.963 244.704 217.21 243.456 217.99L176.704 256.505C175.457 257.284 173.429 257.44 172.182 256.661Z" fill="#242993"/>
<path d="M174.209 274.125C173.117 274.125 171.87 273.813 171.09 273.345L76.7331 218.77C75.7974 218.302 75.3295 217.366 75.3295 216.587C75.3295 215.651 75.9533 214.56 77.201 213.936L170.778 159.984C172.805 158.737 175.925 158.581 177.796 159.672L272.153 214.248C273.089 214.716 273.557 215.651 273.557 216.431C273.557 217.366 272.933 218.458 271.685 219.082L178.108 273.033C177.016 273.813 175.457 274.125 174.209 274.125ZM171.714 272.098C173.117 272.877 175.613 272.721 177.328 271.786L270.905 217.834C271.685 217.366 272.153 216.899 272.153 216.431C272.153 215.963 271.685 215.651 271.373 215.495L177.016 160.92C175.613 160.14 173.117 160.296 171.402 161.232L77.8249 215.183C77.045 215.651 76.5772 216.119 76.5772 216.587C76.5772 217.054 77.045 217.366 77.357 217.522L171.714 272.098Z" fill="#42FFFF"/>
<path d="M244.548 190.858V177.76H223.337L176.393 150.628C175.301 150.005 173.273 150.005 171.87 150.784L125.081 177.76H104.026V190.858C104.026 191.326 104.338 191.638 104.806 191.95L172.182 230.776C173.273 231.4 175.301 231.4 176.705 230.62L243.456 192.106C244.08 191.794 244.548 191.326 244.548 190.858Z" fill="url(#paint5_linear)"/>
<path d="M172.182 217.99L104.806 179.164C103.715 178.54 103.87 177.292 105.118 176.513L171.87 137.998C173.273 137.218 175.145 137.218 176.393 137.842L243.768 176.669C244.86 177.292 244.704 178.54 243.456 179.319L176.705 217.834C175.457 218.458 173.429 218.614 172.182 217.99Z" fill="url(#paint6_linear)"/>
<path d="M172.182 217.99L104.806 179.164C103.715 178.54 103.87 177.292 105.118 176.513L171.87 137.998C173.273 137.218 175.145 137.218 176.393 137.842L243.768 176.669C244.86 177.292 244.704 178.54 243.456 179.319L176.705 217.834C175.457 218.458 173.429 218.614 172.182 217.99Z" fill="url(#paint7_linear)"/>
<path d="M172.494 213.313L112.76 178.853C111.669 178.229 111.825 177.293 113.072 176.514L172.182 142.365C173.429 141.741 175.145 141.585 176.237 142.209L235.97 176.67C237.062 177.293 236.906 178.229 235.658 179.008L176.549 213.157C175.301 213.937 173.429 213.937 172.494 213.313Z" fill="#242993"/>
<path d="M172.65 210.505L117.751 178.852C116.815 178.384 116.971 177.292 118.063 176.669L172.338 145.327C173.429 144.703 174.989 144.703 175.925 145.171L230.823 176.825C231.759 177.292 231.603 178.384 230.511 179.008L176.237 210.349C175.145 210.973 173.585 210.973 172.65 210.505Z" fill="#4553C7"/>
<path d="M173.117 175.733L166.723 171.991L170.154 169.964L176.549 173.706L173.117 175.733Z" fill="#42FFFF"/>
<path d="M184.97 175.266L178.576 179.008L175.145 176.981L181.539 173.239L184.97 175.266Z" fill="#42FFFF"/>
<path d="M171.558 176.67L168.127 178.697L164.539 176.67L168.127 174.642L171.558 176.67Z" fill="#42FFFF"/>
<path d="M183.723 183.53L180.292 185.557L170.154 179.787L173.585 177.76L183.723 183.53Z" fill="#42FFFF"/>
<path opacity="0.4" d="M244.548 160.296L215.851 160.452L176.393 137.686C175.301 137.062 173.273 137.062 171.87 137.842L131.788 160.92L104.026 161.076V177.916C104.026 178.228 104.338 178.54 104.806 178.852L172.182 217.678C173.273 218.302 175.301 218.302 176.705 217.522L243.456 179.008C244.08 178.696 244.392 178.228 244.548 177.76V160.296Z" fill="#42FFFF"/>
<path d="M244.548 162.011V149.069H223.337L176.393 121.937C175.301 121.313 173.273 121.314 171.87 122.093L125.081 149.069H104.026V162.167C104.026 162.635 104.338 162.947 104.806 163.259L172.182 202.085C173.273 202.709 175.301 202.709 176.705 201.929L243.456 163.415C244.08 162.947 244.548 162.479 244.548 162.011Z" fill="url(#paint8_linear)"/>
<path d="M172.182 189.143L104.806 150.316C103.715 149.693 103.87 148.445 105.118 147.666L171.87 109.151C173.273 108.371 175.145 108.371 176.393 108.995L243.768 147.822C244.86 148.445 244.704 149.693 243.456 150.472L176.705 188.987C175.457 189.767 173.429 189.767 172.182 189.143Z" fill="url(#paint9_linear)"/>
<path d="M172.494 184.622L112.76 150.161C111.669 149.538 111.825 148.602 113.072 147.823L172.182 113.674C173.429 113.05 175.145 112.894 176.237 113.518L235.97 147.978C237.062 148.602 236.906 149.538 235.658 150.317L176.549 184.466C175.301 185.09 173.429 185.09 172.494 184.622Z" fill="#242993"/>
<path d="M172.649 181.658L117.751 150.005C116.815 149.537 116.971 148.445 118.063 147.822L172.338 116.48C173.429 115.856 174.989 115.856 175.925 116.324L230.823 147.978C231.759 148.445 231.603 149.537 230.511 150.161L176.237 181.502C175.145 182.126 173.585 182.282 172.649 181.658Z" fill="#4553C7"/>
<path d="M173.117 147.042L166.723 143.3L170.154 141.273L176.549 145.015L173.117 147.042Z" fill="#42FFFF"/>
<path d="M184.97 146.419L178.576 150.161L175.145 148.134L181.539 144.392L184.97 146.419Z" fill="#42FFFF"/>
<path d="M171.558 147.823L168.127 149.85L164.539 147.823L168.127 145.795L171.558 147.823Z" fill="#42FFFF"/>
<path d="M183.723 154.838L180.292 156.866L170.154 150.94L173.585 148.913L183.723 154.838Z" fill="#42FFFF"/>
<path d="M559.278 456.719C558.187 456.719 557.095 456.407 556.159 455.939L500.793 423.974L501.573 422.726L556.939 454.692C558.343 455.471 560.214 455.471 561.618 454.692L809.129 311.86C809.441 311.704 809.597 311.236 809.597 311.08C809.597 310.924 809.597 310.612 809.129 310.301L691.846 242.627L692.626 241.38L809.909 309.053C810.688 309.521 811 310.145 811 311.08C811 312.016 810.533 312.64 809.909 313.107L562.398 455.939C561.462 456.407 560.37 456.719 559.278 456.719Z" fill="#42FFFF"/>
<path d="M269.346 472L269.034 471.688L0 316.85L1.09173 316.226L123.834 245.434L124.457 246.681L2.96327 316.85L269.346 470.285L345.455 426.624L346.079 427.872L269.346 472Z" fill="#42FFFF"/>
<path opacity="0.5" d="M416.262 444.712L293.208 373.608C291.18 372.361 291.336 370.334 293.832 368.93L415.638 298.606C418.133 297.203 421.72 297.047 423.904 298.294L546.957 369.398C548.985 370.646 548.829 372.673 546.334 374.076L424.372 444.4C422.032 445.804 418.289 445.804 416.262 444.712Z" fill="#242993"/>
<path d="M419.693 469.037C417.821 469.037 415.95 468.57 414.702 467.79L253.749 374.856C252.346 374.076 251.566 372.829 251.566 371.425C251.566 369.866 252.658 368.307 254.529 367.215L413.922 275.216C417.353 273.189 422.5 273.033 425.463 274.749L586.416 367.839C587.819 368.618 588.599 369.866 588.599 371.269C588.599 372.829 587.507 374.388 585.636 375.479L426.243 467.478C424.371 468.569 421.876 469.037 419.693 469.037ZM420.316 275.372C418.289 275.372 416.261 275.84 414.702 276.776L255.309 368.774C253.905 369.554 253.126 370.646 253.126 371.581C253.126 372.517 253.905 373.14 254.529 373.608L415.482 466.542C417.977 467.946 422.5 467.79 425.463 466.075L584.856 374.076C586.26 373.296 587.039 372.205 587.039 371.269C587.039 370.334 586.26 369.71 585.636 369.242L424.683 276.308C423.436 275.684 421.876 275.372 420.316 275.372Z" fill="#42FFFF"/>
<path d="M548.205 333.222V309.521H509.527L423.748 259.935C421.72 258.688 417.977 258.844 415.482 260.247L330.015 309.521H291.492V333.378C291.492 334.158 291.96 334.782 292.896 335.405L415.95 406.509C417.977 407.757 421.72 407.601 424.216 406.198L546.022 335.873C547.581 334.938 548.205 334.002 548.205 333.222Z" fill="url(#paint10_linear)"/>
<path d="M416.262 382.652L293.208 311.704C291.18 310.457 291.336 308.429 293.832 307.026L415.638 236.702C418.133 235.298 421.72 235.142 423.904 236.39L546.957 307.494C548.985 308.741 548.829 310.768 546.334 312.172L424.528 382.496C422.032 383.744 418.289 383.9 416.262 382.652Z" fill="url(#paint11_linear)"/>
<path d="M416.573 374.388L307.556 311.392C305.685 310.301 305.997 308.429 308.024 307.182L416.105 244.81C418.289 243.563 421.564 243.407 423.436 244.498L532.453 307.494C534.324 308.585 534.012 310.457 531.985 311.704L423.904 374.076C421.72 375.323 418.445 375.479 416.573 374.388Z" fill="#242993"/>
<path d="M416.885 369.086L316.602 311.236C314.886 310.301 315.042 308.585 317.07 307.338L416.261 250.112C418.289 249.02 421.252 248.864 422.968 249.8L523.251 307.65C524.967 308.585 524.811 310.301 522.783 311.548L423.592 368.774C421.564 370.022 418.601 370.022 416.885 369.086Z" fill="#4553C7"/>
<path opacity="0.5" d="M417.665 353.493L343.739 310.768C342.492 309.989 342.648 308.741 344.051 307.962L417.197 265.705C418.601 264.925 420.94 264.769 422.188 265.549L496.114 308.274C497.362 309.053 497.206 310.301 495.802 311.08L422.656 353.181C421.252 354.117 419.069 354.117 417.665 353.493Z" fill="#242993"/>
<path d="M417.665 305.623L405.968 298.918L412.362 295.175L424.06 302.036L417.665 305.623Z" fill="#42FFFF"/>
<path d="M439.5 304.687L427.803 311.548L421.408 307.806L433.105 301.101L439.5 304.687Z" fill="#42FFFF"/>
<path d="M415.014 307.182L408.619 310.924L402.225 307.182L408.619 303.596L415.014 307.182Z" fill="#42FFFF"/>
<path d="M437.16 319.968L430.766 323.711L412.362 313.107L418.757 309.365L437.16 319.968Z" fill="#42FFFF"/>
<path d="M420.005 115.7L319.877 57.85L420.005 0L520.132 57.85L420.005 115.7Z" fill="#BCD5FF"/>
<path d="M420.005 337.588L319.877 279.738L420.005 221.888L520.132 279.738L420.005 337.588Z" fill="white"/>
<path d="M520.132 57.85V279.738L420.005 337.588V115.7L520.132 57.85Z" fill="url(#paint12_linear)"/>
<path d="M319.877 57.85V279.738L420.005 337.588V115.7L319.877 57.85Z" fill="#242993"/>
<g opacity="0.51">
<path opacity="0.51" d="M326.584 72.5074V272.098L413.298 321.995V122.561L326.584 72.5074Z" fill="#4553C7"/>
</g>
<path d="M505.16 111.49V117.259L434.977 157.801V151.876L505.16 111.49Z" fill="#4553C7"/>
<path d="M505.16 136.283V142.052L434.977 182.594V176.669L505.16 136.283Z" fill="#4553C7"/>
<path d="M505.16 161.076V166.845L434.977 207.387V201.461L505.16 161.076Z" fill="#4553C7"/>
<path d="M505.16 185.868V191.794L434.977 232.18V226.254L505.16 185.868Z" fill="#4553C7"/>
<path d="M505.16 210.661V216.587L434.977 256.973V251.203L505.16 210.661Z" fill="#4553C7"/>
<path d="M505.16 235.454V241.38L434.977 281.765V275.996L505.16 235.454Z" fill="#4553C7"/>
<path d="M420.005 113.673L321.593 56.7585L319.877 57.85L420.005 115.7L520.132 57.85L518.416 56.7585L420.005 113.673Z" fill="white"/>
<mask id="mask0" mask-type="alpha" maskUnits="userSpaceOnUse" x="319" y="11" width="102" height="90">
<path d="M420.005 100.419H393.647L319.877 57.85L400.197 11.3829H420.005V100.419Z" fill="url(#paint13_linear)"/>
</mask>
<g mask="url(#mask0)">
<path opacity="0.78" d="M420.005 100.419H393.647L319.877 57.85L400.197 11.3829H420.005V100.419Z" fill="url(#paint14_linear)"/>
<path d="M420.005 95.2732L347.326 53.328L420.005 11.3829L492.683 53.328L420.005 95.2732Z" fill="url(#paint15_linear)"/>
<path d="M347.326 53.328V58.4737L420.005 100.419V95.2732L347.326 53.328Z" fill="url(#paint16_linear)"/>
<path d="M391.776 54.1079L388.656 52.2367L388.812 50.6774L418.757 33.3692L422.812 35.2404L422.032 36.6437L391.776 54.1079Z" fill="#3F38FC"/>
<path d="M418.913 34.7724L422.032 36.6435L424.216 35.3961L418.913 32.2775L386.473 50.9891L388.656 52.2365L418.913 34.7724Z" fill="url(#paint17_linear)"/>
<path d="M401.601 59.7214L398.326 57.8502L398.638 56.2909L428.427 38.9827L432.638 40.8539L431.858 42.2572L401.601 59.7214Z" fill="#3F38FC"/>
<path d="M428.582 40.3858L431.858 42.257L433.885 41.0096L428.582 37.891L396.298 56.6026L398.326 57.85L428.582 40.3858Z" fill="url(#paint18_linear)"/>
<path d="M411.427 65.3348L408.151 63.4637L408.463 61.9044L438.252 44.5962L442.463 46.4673L441.683 47.8707L411.427 65.3348Z" fill="#3F38FC"/>
<path d="M438.408 45.9993L441.683 47.8705L443.711 46.623L438.408 43.5044L406.124 62.216L408.151 63.4635L438.408 45.9993Z" fill="url(#paint19_linear)"/>
<path d="M421.096 70.9483L417.977 69.0771L418.133 67.5178L448.078 50.2096L452.133 52.2367L451.353 53.4842L421.096 70.9483Z" fill="#3F38FC"/>
<path d="M448.234 51.6128L451.353 53.484L453.536 52.2365L448.234 49.2739L415.794 67.8295L417.977 69.077L448.234 51.6128Z" fill="url(#paint20_linear)"/>
<g opacity="0.51">
<path opacity="0.51" d="M319.877 244.654L420.005 184.153V115.7L319.877 57.85V244.654Z" fill="#4553C7"/>
</g>
<path d="M332.042 74.0667C332.042 71.5718 330.327 68.4532 327.987 67.2058C326.895 66.5821 325.804 66.5821 325.18 66.894L322.373 68.6092H324.088C324.088 68.921 323.932 69.2329 323.932 69.5448C323.932 72.0396 325.648 75.1582 327.987 76.4057C328.299 76.5616 328.611 76.7175 328.767 76.7175L327.987 78.2768L330.794 76.7175C331.574 76.2498 332.042 75.3142 332.042 74.0667Z" fill="url(#paint21_linear)"/>
<path d="M329.235 75.6264C329.235 78.1212 327.519 79.2127 325.18 77.9653C322.996 76.7179 321.125 73.5993 321.125 71.1044C321.125 68.6095 322.841 67.518 325.18 68.7654C327.363 70.0129 329.235 73.1315 329.235 75.6264Z" fill="url(#paint22_linear)"/>
<path d="M327.519 74.6912C327.519 76.0946 326.428 76.7183 325.18 75.9387C323.932 75.159 322.841 73.4438 322.841 72.0404C322.841 70.637 323.932 70.0133 325.18 70.793C326.428 71.4167 327.519 73.2878 327.519 74.6912Z" fill="#3F38FC"/>
</g>
<path d="M157.677 376.259L108.081 347.724L157.677 319.189L207.273 347.724L157.677 376.259ZM110.889 347.724L157.677 374.7L204.466 347.724L157.677 320.748L110.889 347.724Z" fill="#88FFF3"/>
<path d="M597.801 347.568L548.205 319.033L597.801 290.497L647.397 319.033L597.801 347.568ZM550.856 319.033L597.645 346.009L644.433 319.033L597.645 292.057L550.856 319.033Z" fill="#88FFF3"/>
<path d="M795.56 460.305L745.964 431.77L795.56 403.235L845.156 431.77L795.56 460.305ZM748.616 431.614L795.404 458.59L842.193 431.614L795.404 404.638L748.616 431.614Z" fill="#88FFF3"/>
</g>
<defs>
<linearGradient id="paint0_linear" x1="684.36" y1="147.694" x2="574.928" y2="235.465" gradientUnits="userSpaceOnUse">
<stop stop-color="#BCD5FF"/>
<stop offset="0.151" stop-color="#A3BEFF"/>
<stop offset="0.3866" stop-color="#82A0FF"/>
<stop offset="0.6124" stop-color="#6A8AFF"/>
<stop offset="0.8221" stop-color="#5C7DFF"/>
<stop offset="1" stop-color="#5778FF"/>
</linearGradient>
<linearGradient id="paint1_linear" x1="705.046" y1="174.464" x2="552.81" y2="126.906" gradientUnits="userSpaceOnUse">
<stop stop-color="#C0D6FF"/>
<stop offset="0.2978" stop-color="#C5DBFF"/>
<stop offset="0.6488" stop-color="#D3E9FF"/>
<stop offset="1" stop-color="#E9FFFF"/>
</linearGradient>
<linearGradient id="paint2_linear" x1="705.046" y1="174.464" x2="552.81" y2="126.906" gradientUnits="userSpaceOnUse">
<stop stop-color="#C0D6FF"/>
<stop offset="0.2978" stop-color="#C5DBFF"/>
<stop offset="0.6488" stop-color="#D3E9FF"/>
<stop offset="1" stop-color="#E9FFFF"/>
</linearGradient>
<linearGradient id="paint3_linear" x1="684.361" y1="118.904" x2="574.928" y2="206.675" gradientUnits="userSpaceOnUse">
<stop stop-color="#BCD5FF"/>
<stop offset="0.151" stop-color="#A3BEFF"/>
<stop offset="0.3866" stop-color="#82A0FF"/>
<stop offset="0.6124" stop-color="#6A8AFF"/>
<stop offset="0.8221" stop-color="#5C7DFF"/>
<stop offset="1" stop-color="#5778FF"/>
</linearGradient>
<linearGradient id="paint4_linear" x1="705.046" y1="145.674" x2="552.81" y2="98.1165" gradientUnits="userSpaceOnUse">
<stop stop-color="#C0D6FF"/>
<stop offset="0.2978" stop-color="#C5DBFF"/>
<stop offset="0.6488" stop-color="#D3E9FF"/>
<stop offset="1" stop-color="#E9FFFF"/>
</linearGradient>
<linearGradient id="paint5_linear" x1="214.55" y1="152.406" x2="105.117" y2="240.177" gradientUnits="userSpaceOnUse">
<stop stop-color="#BCD5FF"/>
<stop offset="0.151" stop-color="#A3BEFF"/>
<stop offset="0.3866" stop-color="#82A0FF"/>
<stop offset="0.6124" stop-color="#6A8AFF"/>
<stop offset="0.8221" stop-color="#5C7DFF"/>
<stop offset="1" stop-color="#5778FF"/>
</linearGradient>
<linearGradient id="paint6_linear" x1="235.235" y1="179.176" x2="82.9993" y2="131.618" gradientUnits="userSpaceOnUse">
<stop stop-color="#C0D6FF"/>
<stop offset="0.2978" stop-color="#C5DBFF"/>
<stop offset="0.6488" stop-color="#D3E9FF"/>
<stop offset="1" stop-color="#E9FFFF"/>
</linearGradient>
<linearGradient id="paint7_linear" x1="235.235" y1="179.176" x2="82.9993" y2="131.618" gradientUnits="userSpaceOnUse">
<stop stop-color="#C0D6FF"/>
<stop offset="0.2978" stop-color="#C5DBFF"/>
<stop offset="0.6488" stop-color="#D3E9FF"/>
<stop offset="1" stop-color="#E9FFFF"/>
</linearGradient>
<linearGradient id="paint8_linear" x1="214.55" y1="123.616" x2="105.117" y2="211.387" gradientUnits="userSpaceOnUse">
<stop stop-color="#BCD5FF"/>
<stop offset="0.151" stop-color="#A3BEFF"/>
<stop offset="0.3866" stop-color="#82A0FF"/>
<stop offset="0.6124" stop-color="#6A8AFF"/>
<stop offset="0.8221" stop-color="#5C7DFF"/>
<stop offset="1" stop-color="#5778FF"/>
</linearGradient>
<linearGradient id="paint9_linear" x1="235.235" y1="150.386" x2="82.9992" y2="102.829" gradientUnits="userSpaceOnUse">
<stop stop-color="#C0D6FF"/>
<stop offset="0.2978" stop-color="#C5DBFF"/>
<stop offset="0.6488" stop-color="#D3E9FF"/>
<stop offset="1" stop-color="#E9FFFF"/>
</linearGradient>
<linearGradient id="paint10_linear" x1="493.478" y1="263.026" x2="293.597" y2="423.34" gradientUnits="userSpaceOnUse">
<stop stop-color="#BCD5FF"/>
<stop offset="0.151" stop-color="#A3BEFF"/>
<stop offset="0.3866" stop-color="#82A0FF"/>
<stop offset="0.6124" stop-color="#6A8AFF"/>
<stop offset="0.8221" stop-color="#5C7DFF"/>
<stop offset="1" stop-color="#5778FF"/>
</linearGradient>
<linearGradient id="paint11_linear" x1="531.259" y1="311.921" x2="253.199" y2="225.057" gradientUnits="userSpaceOnUse">
<stop stop-color="#C0D6FF"/>
<stop offset="0.2978" stop-color="#C5DBFF"/>
<stop offset="0.6488" stop-color="#D3E9FF"/>
<stop offset="1" stop-color="#E9FFFF"/>
</linearGradient>
<linearGradient id="paint12_linear" x1="470.096" y1="275.092" x2="470.096" y2="63.7537" gradientUnits="userSpaceOnUse">
<stop stop-color="#C0D6FF"/>
<stop offset="0.2978" stop-color="#C5DBFF"/>
<stop offset="0.6488" stop-color="#D3E9FF"/>
<stop offset="1" stop-color="#E9FFFF"/>
</linearGradient>
<linearGradient id="paint13_linear" x1="319.846" y1="55.9403" x2="420.013" y2="55.9403" gradientUnits="userSpaceOnUse">
<stop/>
<stop offset="0.0469354" stop-color="#2F2F2F"/>
<stop offset="0.0981487" stop-color="#5A5A5A"/>
<stop offset="0.155" stop-color="#828282"/>
<stop offset="0.2161" stop-color="#A4A4A4"/>
<stop offset="0.2828" stop-color="#C0C0C0"/>
<stop offset="0.3571" stop-color="#D7D7D7"/>
<stop offset="0.442" stop-color="#E9E9E9"/>
<stop offset="0.5443" stop-color="#F6F6F6"/>
<stop offset="0.6813" stop-color="#FDFDFD"/>
<stop offset="1" stop-color="white"/>
</linearGradient>
<linearGradient id="paint14_linear" x1="319.846" y1="55.9403" x2="420.013" y2="55.9403" gradientUnits="userSpaceOnUse">
<stop stop-color="#E9FFFF"/>
<stop offset="0.0373936" stop-color="#D3EBFF"/>
<stop offset="0.1056" stop-color="#B2CCFF"/>
<stop offset="0.1817" stop-color="#96B2FF"/>
<stop offset="0.2663" stop-color="#7F9DFF"/>
<stop offset="0.3632" stop-color="#6D8CFF"/>
<stop offset="0.4798" stop-color="#6081FF"/>
<stop offset="0.6363" stop-color="#597AFF"/>
<stop offset="1" stop-color="#5778FF"/>
</linearGradient>
<linearGradient id="paint15_linear" x1="347.334" y1="53.3893" x2="492.691" y2="53.3893" gradientUnits="userSpaceOnUse">
<stop stop-color="#C0D6FF"/>
<stop offset="0.2978" stop-color="#C5DBFF"/>
<stop offset="0.6488" stop-color="#D3E9FF"/>
<stop offset="1" stop-color="#E9FFFF"/>
</linearGradient>
<linearGradient id="paint16_linear" x1="383.673" y1="78.6568" x2="383.673" y2="31.6015" gradientUnits="userSpaceOnUse">
<stop stop-color="#5778FF"/>
<stop offset="0.1779" stop-color="#5C7DFF"/>
<stop offset="0.3876" stop-color="#6A8AFF"/>
<stop offset="0.6134" stop-color="#82A0FF"/>
<stop offset="0.849" stop-color="#A3BEFF"/>
<stop offset="1" stop-color="#BCD5FF"/>
</linearGradient>
<linearGradient id="paint17_linear" x1="386.537" y1="42.2698" x2="424.177" y2="42.2698" gradientUnits="userSpaceOnUse">
<stop stop-color="#5778FF"/>
<stop offset="0.1779" stop-color="#5C7DFF"/>
<stop offset="0.3876" stop-color="#6A8AFF"/>
<stop offset="0.6134" stop-color="#82A0FF"/>
<stop offset="0.849" stop-color="#A3BEFF"/>
<stop offset="1" stop-color="#BCD5FF"/>
</linearGradient>
<linearGradient id="paint18_linear" x1="396.307" y1="47.892" x2="433.947" y2="47.892" gradientUnits="userSpaceOnUse">
<stop stop-color="#5778FF"/>
<stop offset="0.1779" stop-color="#5C7DFF"/>
<stop offset="0.3876" stop-color="#6A8AFF"/>
<stop offset="0.6134" stop-color="#82A0FF"/>
<stop offset="0.849" stop-color="#A3BEFF"/>
<stop offset="1" stop-color="#BCD5FF"/>
</linearGradient>
<linearGradient id="paint19_linear" x1="406.078" y1="53.5141" x2="443.717" y2="53.5141" gradientUnits="userSpaceOnUse">
<stop stop-color="#5778FF"/>
<stop offset="0.1779" stop-color="#5C7DFF"/>
<stop offset="0.3876" stop-color="#6A8AFF"/>
<stop offset="0.6134" stop-color="#82A0FF"/>
<stop offset="0.849" stop-color="#A3BEFF"/>
<stop offset="1" stop-color="#BCD5FF"/>
</linearGradient>
<linearGradient id="paint20_linear" x1="415.848" y1="59.1363" x2="453.488" y2="59.1363" gradientUnits="userSpaceOnUse">
<stop stop-color="#5778FF"/>
<stop offset="0.1779" stop-color="#5C7DFF"/>
<stop offset="0.3876" stop-color="#6A8AFF"/>
<stop offset="0.6134" stop-color="#82A0FF"/>
<stop offset="0.849" stop-color="#A3BEFF"/>
<stop offset="1" stop-color="#BCD5FF"/>
</linearGradient>
<linearGradient id="paint21_linear" x1="322.399" y1="72.3922" x2="332.037" y2="72.3922" gradientUnits="userSpaceOnUse">
<stop stop-color="#C0D6FF"/>
<stop offset="0.2978" stop-color="#C5DBFF"/>
<stop offset="0.6488" stop-color="#D3E9FF"/>
<stop offset="1" stop-color="#E9FFFF"/>
</linearGradient>
<linearGradient id="paint22_linear" x1="321.226" y1="73.3743" x2="329.197" y2="73.3743" gradientUnits="userSpaceOnUse">
<stop stop-color="#5778FF"/>
<stop offset="0.1779" stop-color="#5C7DFF"/>
<stop offset="0.3876" stop-color="#6A8AFF"/>
<stop offset="0.6134" stop-color="#82A0FF"/>
<stop offset="0.849" stop-color="#A3BEFF"/>
<stop offset="1" stop-color="#BCD5FF"/>
</linearGradient>
<clipPath id="clip0">
<rect width="845" height="472" fill="white"/>
</clipPath>
</defs>
</svg>
